# xmcd
#
# Track frame offsets: 
#        150
#        14448
#        26794
#        40198
#        53013
#        66684
#        81376
#        100296
#        114530
#        135162
#        149102
#
# Disc length: 2142 seconds
#
# Revision: 0
# Processed by: cddbd v1.5.2PL0 Copyright (c) Steve Scherf et al.
# Submitted via: ExactAudioCopyFreeDBPlugin 1.0
#
DISCID=a0085c0b
DTITLE=Gloria Lynne - Happy And In Love
DYEAR=1970
DGENRE=
TTITLE0=Whatever It Was You Just Did
TTITLE1=How Did You Make Me Love You
TTITLE2=Can You Take What I'm Gonna Do?
TTITLE3=If You Don't Get It Yourself
TTITLE4=I've Just Gotta Tell Somebody
TTITLE5=Love's Finally Found Me
TTITLE6=What Else Can I Do
TTITLE7=Seems Like I Gotta Do Wrong
TTITLE8=Don't Tell Me How To Love You
TTITLE9=I'm So In Love
TTITLE10=I'll Take You All The Way There
EXTD=
EXTT0=
EXTT1=
EXTT2=
EXTT3=
EXTT4=
EXTT5=
EXTT6=
EXTT7=
EXTT8=
EXTT9=
EXTT10=
PLAYORDER=
